# AST/ASF file generated using VICON BodyLanguage
# -----------------------------------------------
:version 1.10
:name VICON
:units
  mass 1.0
  length 0.45
  angle deg
:documentation
   .ast/.asf automatically generated from VICON data using
   VICON BodyBuilder and BodyLanguage model FoxedUp or BRILLIANT.MOD
:root
   order TX TY TZ RX RY RZ
   axis XYZ
   position 0 0 0  
   orientation 0 0 0 
:bonedata
  begin
     id 1 
     name lhipjoint
     direction 0.521689 -0.742065 0.420928 
     length 2.47002 
     axis 0 0 0  XYZ
  end
  begin
     id 2 
     name lfemur
     direction 0.34202 -0.939693 0  
     length 7.24654  
     axis 0 0 20  XYZ
    dof rx ry rz
    limits (-160.0 20.0)
           (-70.0 70.0)
           (-60.0 70.0)
  end
  begin
     id 3 
     name ltibia
     direction 0.34202 -0.939693 0   
     length 8.04849   
     axis 0 0 20   XYZ
    dof rx
    limits (-10.0 170.0)
  end
  begin
     id 4 
     name lfoot
     direction 0.0745411 -0.2048 0.975961   
     length 1.72367   
     axis -90 7.62852e-016 20   XYZ
    dof rx rz
    limits (-45.0 90.0)
           (-70.0 20.0)
  end
  begin
     id 5 
     name ltoes
     direction 1.53556e-011 -4.21901e-011 1   
     length 0.87311   
     axis -90 7.62852e-016 20   XYZ
    dof rx
    limits (-90.0 20.0)
  end
  begin
     id 6 
     name rhipjoint
     direction -0.52849 -0.738415 0.418857   
     length 2.48223  
     axis 0 0 0  XYZ 
  end
  begin
     id 7 
     name rfemur
     direction -0.34202 -0.939693 0   
     length 7.15571   
     axis 0 0 -20   XYZ
    dof rx ry rz
    limits (-160.0 20.0)
           (-70.0 70.0)
           (-70.0 60.0)
  end
  begin
     id 8 
     name rtibia
     direction -0.34202 -0.939693 0   
     length 7.81659   
     axis 0 0 -20   XYZ
    dof rx
    limits (-10.0 170.0)
 end
 begin
     id 9 
     name rfoot
     direction -0.0917348 -0.252039 0.963359   
     length 1.84382  
     axis -90 -7.62852e-016 -20   XYZ
    dof rx rz
    limits (-45.0 90.0)
           (-20.0 70.0)
  end
  begin
     id 10 
     name rtoes
     direction -1.53551e-011 -4.21879e-011 1   
     length 0.927771   
     axis -90 -7.62852e-016 -20   XYZ
    dof rx
    limits (-90.0 20.0)
  end
  begin
     id 11 
     name lowerback
     direction 0.00583058 0.999822 0.0179296   
     length 2.1429   
     axis 0 0 0   XYZ
    dof rx ry rz
    limits (-20.0 45.0)
           (-30.0 30.0)
           (-30.0 30.0)
  end
  begin
     id 12 
     name upperback
     direction -0.0137999 0.999752 -0.0175071   
     length 2.14252   
     axis 0 0 0   XYZ
    dof rx ry rz
    limits (-20.0 45.0)
           (-30.0 30.0)
           (-30.0 30.0)
  end
  begin
     id 13 
     name thorax
     direction -0.0158036 0.99955 -0.0254909   
     length 2.1383   
     axis 0 0 0   XYZ
    dof rx ry rz
    limits (-20.0 45.0)
           (-30.0 30.0)
           (-30.0 30.0)
  end
  begin
     id 14 
     name lowerneck
     direction -0.0101179 0.999403 -0.0330262   
     length 1.65808   
     axis 0 0 0   XYZ
    dof rx ry rz
    limits (-20.0 45.0)
           (-30.0 30.0)
           (-30.0 30.0)
  end
  begin
     id 15 
     name upperneck
     direction 0.0497734 0.995978 -0.074501   
     length 1.5897   
     axis 0 0 0   XYZ
    dof rx ry rz
    limits (-20.0 45.0)
           (-30.0 30.0)
           (-30.0 30.0)
  end
  begin
     id 16
     name head
     direction 0.0189524 0.999519 -0.0245438  
     length 1.74024  
     axis 0 0 0   XYZ
    dof rx ry rz
    limits (-20.0 45.0)
           (-30.0 30.0)
           (-30.0 30.0)
  end
  begin
     id 17 
     name lclavicle
     direction 0.945604 0.324422 0.0241537  
     length 3.59089  
     axis 0 0 0   XYZ
    dof ry rz
    limits (-20.0 10.0)
           (0.0 20.0)
  end
  begin
     id 18 
     name lhumerus
     direction 1 -4.48964e-011 -2.63524e-027   
     length 5.2391   
     axis 180 -30 -90   XYZ
    dof rx ry rz
    limits (-60.0 90.0)
           (-90.0 90.0)
           (-90.0 90.0)
  end
  begin
     id 19
     name lradius
     direction 1 -4.48969e-011 3.86978e-028   
     length 3.31467   
     axis 180 -30 -90   XYZ
    dof rx
    limits (-10.0 170.0)
  end
  begin
     id 20
     name lwrist
     direction 1 -4.48963e-011 7.20928e-028   
     length 1.65734   
     axis -5.52449e-016 90 90   XYZ
    dof ry
    limits (-180.0 0.0)
 end
  begin
     id 21 
     name lhand
     direction 1 -4.48964e-011 1.44186e-027   
     length 0.9659   
     axis -9.20027e-016 90 90   XYZ
    dof rx rz
    limits (-90.0 90.0)
           (-45.0 45.0)
  end
  begin
     id 22 
     name lfingers
     direction 1 -4.48965e-011 2.88371e-027   
     length 0.778733   
     axis -1.84005e-015 90 90   XYZ
    dof rx
    limits (0.0 90.0)
  end
  begin
     id 23
     name lthumb
     direction 0.707107 -6.34931e-011 0.707107   
     length 1.11811   
     axis -90 45 2.85299e-015   XYZ
    dof rx rz
    limits (-45.0 45.0)
           (-45.0 45.0)
  end
  begin
     id 24 
     name rclavicle
     direction -0.923762 0.370785 0.0958234   
     length 3.54196  
     axis 0 0 0   XYZ 
    dof ry rz
    limits (-10.0 20.0)
           (-20.0 0.0)
  end
  begin
     id 25 
     name rhumerus
     direction -1 -4.48966e-011 1.18702e-017  
     length 5.30252   
     axis 180 30 90   XYZ
    dof rx ry rz
    limits (-90.0 60.0)
           (-90.0 90.0)
           (-90.0 90.0)
  end
  begin
     id 26 
     name rradius
     direction -1 -4.48966e-011 4.46736e-027   
     length 3.67875   
     axis 180 30 90   XYZ
    dof rx
    limits (-10.0 170.0)
  end
  begin
     id 27 
     name rwrist
     direction -1 -4.48966e-011 7.20928e-028   
     length 1.83937   
     axis -5.52449e-016 -90 -90   XYZ
    dof ry
    limits (-180.0 0.0)
  end
  begin
     id 28
     name rhand
     direction -1 -4.48973e-011 1.44186e-027   
     length 0.594811   
     axis -9.20027e-016 -90 -90   XYZ
    dof rx rz
    limits (-90.0 90.0)
           (-45.0 45.0)
  end
  begin
     id 29
     name rfingers
     direction -1 -4.48963e-011 2.88371e-027   
     length 0.479552   
     axis -1.84005e-015 -90 -90   XYZ
    dof rx
    limits (0.0 90.0)
  end
  begin
     id 30
     name rthumb
     direction -0.707107 -6.34932e-011 0.707107   
     length 0.688544   
     axis -90 -45 -2.85299e-015   XYZ
    dof rx rz
    limits (-45.0 45.0)
           (-45.0 45.0)
  end
:hierarchy
  begin
    root lhipjoint rhipjoint lowerback
    lhipjoint lfemur
    lfemur ltibia
    ltibia lfoot
    lfoot ltoes
    rhipjoint rfemur
    rfemur rtibia
    rtibia rfoot
    rfoot rtoes
    lowerback upperback
    upperback thorax
    thorax lowerneck lclavicle rclavicle
    lowerneck upperneck
    upperneck head
    lclavicle lhumerus
    lhumerus lradius
    lradius lwrist
    lwrist lhand lthumb
    lhand lfingers
    rclavicle rhumerus
    rhumerus rradius
    rradius rwrist
    rwrist rhand rthumb
    rhand rfingers
  end

#!OML:ASF E:\acrobat2\Project_11_07_03\Capture day 1\Session 1\Acrobat.ASF
:FULLY-SPECIFIED
:DEGREES
332
root 9.57911 18.1986 -32.5413 331.241 -79.939 -325.623
lowerback -1.73635 0.30781 5.82844
upperback -3.37753 0.363059 0.831091
thorax -2.47963 0.0238561 -2.40809
lowerneck 1.75232 8.51072 4.10711
upperneck -1.67619 11.2067 -15.1591
head 0.338876 5.63515 -5.12529
rclavicle -4.67144e-015 1.27222e-014
rhumerus -10.4365 -46.3277 -4.06612
rradius 20.7042
rwrist 1.63457
rhand -14.2071 -55.5547
rfingers 7.12502
rthumb 11.9294 -85.1948
lclavicle -4.67144e-015 1.27222e-014
lhumerus 8.4011 7.59432 -0.0405318
lradius 22.6177
lwrist 13.6875
lhand -14.5759 -5.89822
lfingers 7.12502
lthumb 11.5738 23.7622
rfemur 10.7379 25.4149 11.8077
rtibia -6.68407
rfoot -45.0581 -39.683
rtoes 21.2356
lfemur -7.45881 2.42793 4.29626
ltibia 5.22915
lfoot -26.7924 31.7955
ltoes 57.946
333
root 9.57912 18.1925 -32.5049 331.963 -79.7086 -326.387
lowerback -1.64052 0.342311 5.45446
upperback -3.33814 0.415556 0.620551
thorax -2.48709 0.05911 -2.41703
lowerneck 1.7268 8.88466 4.47627
upperneck -1.49972 11.7488 -15.4745
head 0.490357 5.89641 -5.25219
rclavicle 1.16786e-014 3.18055e-014
rhumerus -10.4562 -47.216 -3.87451
rradius 20.7938
rwrist 1.89122
rhand -14.3204 -55.402
rfingers 7.12502
rthumb 11.8201 -85.0484
lclavicle 1.16786e-014 3.18055e-014
lhumerus 8.79972 8.27409 0.175859
lradius 22.3917
lwrist 13.0172
lhand -15.0206 -6.21693
lfingers 7.12502
lthumb 11.1449 23.4671
rfemur 10.9208 25.443 11.7529
rtibia -6.71364
rfoot -45.5802 -39.6058
rtoes 21.6831
lfemur -8.06997 3.66536 4.05785
ltibia 6.56729
lfoot -23.8995 32.2026
ltoes 57.4466
334
root 9.58328 18.1828 -32.4687 335.198 -79.8331 -329.695
lowerback -1.47643 0.429421 5.59412
upperback -3.31301 0.543105 0.618965
thorax -2.5426 0.118815 -2.4984
lowerneck 1.66216 9.25997 4.4175
upperneck -1.38173 12.2728 -15.3751
head 0.578754 6.15063 -5.18826
rclavicle 1.63997e-015 -9.54166e-015
rhumerus -10.3117 -48.7545 -3.67722
rradius 20.8508
rwrist 2.80858
rhand -14.389 -55.3561
rfingers 7.12502
rthumb 11.754 -85.0063
lclavicle 1.63997e-015 -9.54166e-015
lhumerus 9.07668 8.05901 0.0303267
lradius 22.3277
lwrist 13.3453
lhand -15.2125 -6.32813
lfingers 7.12502
lthumb 10.9598 23.3658
rfemur 10.9262 25.3853 12.3274
rtibia -6.56422
rfoot -45.7039 -39.5078
rtoes 21.7382
lfemur -8.64919 4.76883 4.5743
ltibia 7.90774
lfoot -21.0356 32.4995
ltoes 56.584
335
root 9.59015 18.1706 -32.4251 339.654 -79.8474 -334.166
lowerback -1.37577 0.501389 5.96082
upperback -3.32598 0.646948 0.61469
thorax -2.60258 0.159307 -2.70937
lowerneck 1.56869 9.59769 4.26981
upperneck -1.22668 12.7472 -15.097
head 0.658814 6.37857 -5.05646
rclavicle 1.10822e-014 7.95139e-015
rhumerus -10.2415 -49.7004 -3.38691
rradius 20.9792
rwrist 3.14697
rhand -14.3641 -55.4444
rfingers 7.12502
rthumb 11.778 -85.0933
lclavicle 1.10822e-014 7.95139e-015
lhumerus 9.06084 6.59647 -0.640923
lradius 22.6858
lwrist 14.9119
lhand -15.2832 -6.09589
lfingers 7.12502
lthumb 10.8916 23.6016
rfemur 10.8276 24.9266 12.9464
rtibia -6.39996
rfoot -45.3831 -39.3485
rtoes 21.4
lfemur -9.35987 5.52132 5.153
ltibia 9.27423
lfoot -19.1568 32.177
ltoes 55.6641
336
root 9.59602 18.1587 -32.3791 343.044 -79.6499 -337.543
lowerback -1.31349 0.538607 6.12557
upperback -3.3291 0.700836 0.491044
thorax -2.63407 0.179985 -2.93034
lowerneck 1.36103 9.97478 4.4066
upperneck -0.981701 13.2951 -14.9367
head 0.816677 6.63518 -4.98896
rclavicle -5.26779e-015 1.74931e-014
rhumerus -10.1888 -50.1091 -3.13111
rradius 21.1064
rwrist 2.97058
rhand -14.255 -55.8186
rfingers 7.12502
rthumb 11.8832 -85.4614
lclavicle -5.26779e-015 1.74931e-014
lhumerus 9.21707 5.79081 -1.09621
lradius 22.8665
lwrist 15.675
lhand -15.4377 -5.89452
lfingers 7.12502
lthumb 10.7426 23.8108
rfemur 10.7651 24.3283 13.246
rtibia -6.31799
rfoot -45.025 -39.242
rtoes 20.5339
lfemur -10.1791 6.38975 5.34586
ltibia 10.7864
lfoot -18.4733 31.0919
ltoes 55.2538
337
root 9.59679 18.1486 -32.3378 346.274 -79.5416 -340.771
lowerback -1.27827 0.593865 6.20477
upperback -3.2955 0.776364 0.421714
thorax -2.61054 0.216856 -3.04719
lowerneck 0.997336 10.4025 4.50321
upperneck -0.646636 13.9178 -14.7392
head 1.02802 6.9197 -4.88682
rclavicle -1.85864e-014 1.35174e-014
rhumerus -9.92444 -50.5666 -2.98837
rradius 21.1499
rwrist 2.84053
rhand -14.2721 -56.0305
rfingers 7.12502
rthumb 11.8667 -85.6743
lclavicle -1.85864e-014 1.35174e-014
lhumerus 9.56137 6.51922 -0.910868
lradius 22.6899
lwrist 14.863
lhand -15.4906 -5.91571
lfingers 7.12502
lthumb 10.6915 23.7923
rfemur 10.7218 24.0259 13.6719
rtibia -6.21348
rfoot -45.0393 -39.1955
rtoes 20.1423
lfemur -10.9624 7.74191 5.63411
ltibia 12.4032
lfoot -17.7997 29.9145
ltoes 54.7752
338
root 9.59505 18.1383 -32.2972 348.85 -79.4436 -343.337
lowerback -1.27393 0.695893 6.12469
upperback -3.26074 0.911513 0.355783
thorax -2.56322 0.288348 -3.0714
lowerneck 0.819731 10.7199 4.68497
upperneck -0.519918 14.3686 -14.7903
head 1.15559 7.1323 -4.89212
rclavicle 3.93097e-014 1.11319e-014
rhumerus -9.68267 -50.6086 -2.77504
rradius 21.2672
rwrist 2.1792
rhand -14.6829 -56.1565
rfingers 7.12502
rthumb 11.4706 -85.8226
lclavicle 3.93097e-014 1.11319e-014
lhumerus 9.96451 7.48288 -0.514204
lradius 22.4598
lwrist 13.7926
lhand -15.4887 -5.99668
lfingers 7.12502
lthumb 10.6934 23.7112
rfemur 10.6415 23.6039 13.9192
rtibia -6.11983
rfoot -44.8575 -39.0341
rtoes 20.1323
lfemur -11.6465 8.87747 5.85074
ltibia 13.881
lfoot -17.3153 28.7206
ltoes 54.0287
339
root 9.59563 18.126 -32.2513 351.684 -79.2527 -346.203
lowerback -1.20399 0.797186 6.14638
upperback -3.25625 1.0515 0.28241
thorax -2.58277 0.35677 -3.16134
lowerneck 0.835969 10.9066 4.82986
upperneck -0.510089 14.628 -14.9336
head 1.20344 7.26076 -4.94241
rclavicle -4.19933e-015 4.77083e-015
rhumerus -9.52155 -50.0805 -2.51682
rradius 21.4962
rwrist 0.839184
rhand -15.5843 -56.5058
rfingers 7.12502
rthumb 10.6012 -86.2185
lclavicle -4.19933e-015 4.77083e-015
lhumerus 10.364 7.944 -0.260273
lradius 22.3374
lwrist 13.1963
lhand -15.5991 -6.00513
lfingers 7.12502
lthumb 10.5869 23.7082
rfemur 10.593 22.904 14.1586
rtibia -6.03323
rfoot -44.3086 -38.7987
rtoes 19.4734
lfemur -12.2908 9.64491 6.05164
ltibia 15.209
lfoot -17.3614 27.2073
ltoes 53.7775
340
root 9.59738 18.1135 -32.2029 356.019 -79.0158 -350.599
lowerback -1.10613 0.890282 6.59981
upperback -3.26778 1.18428 0.185946
thorax -2.62941 0.408843 -3.51784
lowerneck 0.806519 11.0727 5.10831
upperneck -0.397716 14.8747 -15.0583
head 1.29677 7.37787 -5.00055
rclavicle -2.71093e-014 -2.22639e-014
rhumerus -9.46064 -49.7686 -2.28803
rradius 21.6989
rwrist -0.139867
rhand -16.3995 -57.365
rfingers 7.12502
rthumb 9.81473 -87.1163
lclavicle -2.71093e-014 -2.22639e-014
lhumerus 10.6162 7.51385 -0.503834
lradius 22.4807
lwrist 13.6993
lhand -15.7823 -5.80243
lfingers 7.12502
lthumb 10.4101 23.9199
rfemur 10.6055 22.5955 14.9229
rtibia -5.89016
rfoot -44.308 -38.7199
rtoes 19.1978
lfemur -13.0134 10.5465 6.58976
ltibia 16.6245
lfoot -16.7962 25.8715
ltoes 53.2579
341
root 9.59629 18.1016 -32.1555 359.803 -78.7253 -354.388
lowerback -1.08244 0.974293 6.91861
upperback -3.27707 1.29863 0.0668684
thorax -2.63325 0.456201 -3.82141
lowerneck 0.729775 11.2366 5.35415
upperneck -0.302061 15.1139 -15.0986
head 1.38384 7.4908 -5.0266
rclavicle 3.0265e-014 2.94201e-014
rhumerus -9.28651 -49.9598 -2.115
rradius 21.8309
rwrist -0.47258
rhand -16.6898 -58.0416
rfingers 7.12502
rthumb 9.53462 -87.8059
lclavicle 3.0265e-014 2.94201e-014
lhumerus 10.8663 7.36756 -0.685268
lradius 22.5573
lwrist 13.9493
lhand -15.7149 -5.63182
lfingers 7.12502
lthumb 10.4752 24.0872
rfemur 10.5752 22.3757 15.5814
rtibia -5.77507
rfoot -44.3057 -38.7568
rtoes 19.3066
lfemur -13.8296 11.5494 7.01885
ltibia 18.1285
lfoot -15.7594 24.8895
ltoes 51.6365
342
root 9.5937 18.0876 -32.1071 361.098 -78.3938 -355.687
lowerback -1.08225 1.01171 6.51038
upperback -3.23241 1.34607 0.030299
thorax -2.58634 0.493345 -3.63033
lowerneck 0.593625 11.4336 5.29648
upperneck -0.242496 15.3848 -15.1072
head 1.44799 7.61689 -4.99472
rclavicle 3.90612e-014 -1.27222e-014
rhumerus -8.58523 -50.5254 -2.1045
rradius 21.9124
rwrist -0.511136
rhand -16.6597 -57.6687
rfingers 7.12502
rthumb 9.56365 -87.4317
lclavicle 3.90612e-014 -1.27222e-014
lhumerus 10.996 8.07767 -0.320253
lradius 22.4713
lwrist 13.3401
lhand -15.6855 -5.83214
lfingers 7.12502
lthumb 10.5035 23.8854
rfemur 10.5869 21.8183 15.5766
rtibia -5.74064
rfoot -43.9295 -38.6069
rtoes 19.0593
lfemur -14.5449 12.3396 6.82983
ltibia 19.4821
lfoot -16.4425 23.2986
ltoes 51.5596
